# xmcd
#
# Track frame offsets:
#	150
#	13324
#	29724
#	46955
#	58188
#	73041
#	87280
#	103804
#	118937
#	136503
#	153000
#	167091
#	184093
#	199450
#	216052
#	229860
#	245261
#	259702
#	287534
#
# Disc length: 4440 seconds
#
# Revision: 0
# Processed by: cddbd v1.5.1PL0 Copyright (c) Steve Scherf et al.
# Submitted via: dBpowerAMP V4.0
#
DISCID=14115613
DTITLE=Jose Augusto - Mis Momentos
DYEAR=1900
DGENRE=Ballad
TTITLE0=Semaforo Rojo
TTITLE1=Candilejas
TTITLE2=Melancolia
TTITLE3=El Ritmo De La Lluvia
TTITLE4=Fascinacion
TTITLE5=El Mejor De Mis Amigos
TTITLE6=De Que Vale Tener Todo En La Vida
TTITLE7=La Carta
TTITLE8=Amanece
TTITLE9=Mi Primer Amor
TTITLE10=Consejo DE Amigo
TTITLE11=El Tiempo Nos Enseña
TTITLE12=Nadie Te Va A Amar Como Yo Te Ame
TTITLE13=No Tengo Lagrimas Para Llorar
TTITLE14=Usted No Sabe Que Es Amar
TTITLE15=Maria Elena
TTITLE16=Quiero Encontrar El Amor Verdadero
TTITLE17=America Latina
TTITLE18=DATA
EXTD=
EXTT0=
EXTT1=
EXTT2=
EXTT3=
EXTT4=
EXTT5=
EXTT6=
EXTT7=
EXTT8=
EXTT9=
EXTT10=
EXTT11=
EXTT12=
EXTT13=
EXTT14=
EXTT15=
EXTT16=
EXTT17=
EXTT18=
PLAYORDER=
